<svg
width="500"
height="600"
viewBox="0 0 500 600"
xmlns="http://www.w3.org/2000/svg"
>
<style>
line {
stroke: black;
stroke-width: 3;
}
text {
font-weight: bold;
font-family: sans-serif;
text-anchor: middle;
dominant-baseline: central;
}
.header {
font-size: 80px;
}
.number {
font-size: 75px;
}
</style>
<!-- rows -->
<line x1="000" y1="000" x2="500" y2="000" />
<line x1="000" y1="100" x2="500" y2="100" />
<line x1="000" y1="200" x2="500" y2="200" />
<line x1="000" y1="300" x2="500" y2="300" />
<line x1="000" y1="400" x2="500" y2="400" />
<line x1="000" y1="500" x2="500" y2="500" />
<line x1="000" y1="600" x2="500" y2="600" />
<!-- columns -->
<line x1="000" y1="000" x2="000" y2="600" />
<line x1="100" y1="000" x2="100" y2="600" />
<line x1="200" y1="000" x2="200" y2="600" />
<line x1="300" y1="000" x2="300" y2="600" />
<line x1="400" y1="000" x2="400" y2="600" />
<line x1="500" y1="000" x2="500" y2="600" />
<g class="column-b">
  <text x="050" y="050" class="header">B</text>
  <text x="050" y="150" class="number">{{(index . 0).Value}}</text>
  <text x="050" y="250" class="number">{{(index . 1).Value}}</text>
  <text x="050" y="350" class="number">{{(index . 2).Value}}</text>
  <text x="050" y="450" class="number">{{(index . 3).Value}}</text>
  <text x="050" y="550" class="number">{{(index . 4).Value}}</text>
</g>
<g class="column-i">
  <text x="150" y="050" class="header">I</text>
  <text x="150" y="150" class="number">{{(index . 5).Value}}</text>
  <text x="150" y="250" class="number">{{(index . 6).Value}}</text>
  <text x="150" y="350" class="number">{{(index . 7).Value}}</text>
  <text x="150" y="450" class="number">{{(index . 8).Value}}</text>
  <text x="150" y="550" class="number">{{(index . 9).Value}}</text>
</g>
<g class="column-n">
  <text x="250" y="050" class="header">N</text>
  <text x="250" y="150" class="number">{{(index . 10).Value}}</text>
  <text x="250" y="250" class="number">{{(index . 11).Value}}</text>
  <text x="250" y="350" class="number"></text>
  <text x="250" y="450" class="number">{{(index . 13).Value}}</text>
  <text x="250" y="550" class="number">{{(index . 14).Value}}</text>
</g>
<g class="column-g">
  <text x="350" y="050" class="header">G</text>
  <text x="350" y="150" class="number">{{(index . 15).Value}}</text>
  <text x="350" y="250" class="number">{{(index . 16).Value}}</text>
  <text x="350" y="350" class="number">{{(index . 17).Value}}</text>
  <text x="350" y="450" class="number">{{(index . 18).Value}}</text>
  <text x="350" y="550" class="number">{{(index . 19).Value}}</text>
</g>
<g class="column-o">
  <text x="450" y="050" class="header">O</text>
  <text x="450" y="150" class="number">{{(index . 20).Value}}</text>
  <text x="450" y="250" class="number">{{(index . 21).Value}}</text>
  <text x="450" y="350" class="number">{{(index . 22).Value}}</text>
  <text x="450" y="450" class="number">{{(index . 23).Value}}</text>
  <text x="450" y="550" class="number">{{(index . 24).Value}}</text>
</g>
</svg>
